<?xml version="1.0" ?><svg data-name="Layer 1" id="Layer_1" viewBox="0 0 100 100" xmlns="http://www.w3.org/2000/svg"><defs><style>.cls-1{fill:#fecc09;}.cls-2{fill:#1a1818;}</style></defs><title/><path class="cls-1" d="M80.35,50A30.35,30.35,0,1,1,50,19.65,30.38,30.38,0,0,1,80.35,50Z"/><path class="cls-2" d="M50,9.65A40.35,40.35,0,0,0,24.18,81,40.14,40.14,0,0,0,50,90.35a40.35,40.35,0,0,0,0-80.7Zm0,70.7A30.35,30.35,0,1,1,80.35,50,30.27,30.27,0,0,1,50,80.35Z"/><path class="cls-2" d="M27,39.73a26.2,26.2,0,0,0,5.62.08A26,26,0,0,0,36.72,39a29.39,29.39,0,0,0,3.9-1.4,27.32,27.32,0,0,0,4.82-2.89,7.6,7.6,0,0,1-1,6.82,10.46,10.46,0,0,1-13.16,3.56A7.61,7.61,0,0,1,27,39.73Z"/><path class="cls-2" d="M54.51,34.75a26.69,26.69,0,0,0,4.83,2.91,25.77,25.77,0,0,0,3.92,1.39,26.38,26.38,0,0,0,4.09.75A28,28,0,0,0,73,39.7a7.61,7.61,0,0,1-4.28,5.43,10.46,10.46,0,0,1-13.2-3.55A7.61,7.61,0,0,1,54.51,34.75Z"/><path class="cls-2" d="M35,69.31c-.67-3.77,1-7.66,3.87-10.43a16.22,16.22,0,0,1,22.25,0C64,61.64,65.67,65.53,65,69.31a31.24,31.24,0,0,0-8.19-3.88,25.36,25.36,0,0,0-6.8-1,24.68,24.68,0,0,0-6.81,1A30.49,30.49,0,0,0,35,69.31Z"/></svg>