<?xml version="1.0" ?><svg data-name="Layer 1" id="Layer_1" viewBox="0 0 100 100" xmlns="http://www.w3.org/2000/svg"><defs><style>.cls-1{fill:#fecc09;}.cls-2{fill:#1a1818;}</style></defs><title/><circle class="cls-1" cx="50" cy="50" r="30.35" transform="translate(-15.33 22.94) rotate(-22.5)"/><path class="cls-2" d="M50,9.65A40.35,40.35,0,1,0,90.35,50,40.39,40.39,0,0,0,50,9.65Zm0,70.7A30.35,30.35,0,1,1,80.35,50,30.39,30.39,0,0,1,50,80.35Z"/><circle class="cls-2" cx="38.98" cy="39.33" r="5.5"/><circle class="cls-2" cx="61.02" cy="39.33" r="5.5"/><path class="cls-2" d="M65,54.5c.67,3.78-1,7.66-3.87,10.44a16.25,16.25,0,0,1-22.25,0C36,62.18,34.33,58.28,35,54.5a30.61,30.61,0,0,0,8.19,3.88,25,25,0,0,0,6.8,1,24.7,24.7,0,0,0,6.81-1A30.49,30.49,0,0,0,65,54.5Z"/></svg>