<?xml version="1.0" ?><svg data-name="Layer 1" id="Layer_1" viewBox="0 0 100 100" xmlns="http://www.w3.org/2000/svg"><defs><style>.cls-1{fill:#59c1db;}.cls-2{fill:#1a1818;}.cls-3{fill:#fff;}</style></defs><title/><path class="cls-1" d="M80.35,50A30.35,30.35,0,1,1,50,19.65,30.39,30.39,0,0,1,80.35,50Z"/><path class="cls-2" d="M50,9.65A40.35,40.35,0,1,0,90.35,50,40.39,40.39,0,0,0,50,9.65Zm0,70.7A30.35,30.35,0,1,1,80.35,50,30.39,30.39,0,0,1,50,80.35Z"/><circle class="cls-3" cx="38.98" cy="39.32" r="7.5"/><circle class="cls-3" cx="61.02" cy="39.32" r="7.5"/><path class="cls-2" d="M50,76.69a6.5,6.5,0,0,1-6.5-6.5V56.39a6.5,6.5,0,0,1,13,0v13.8A6.5,6.5,0,0,1,50,76.69Z"/></svg>