<?xml version="1.0" ?><svg data-name="Layer 1" id="Layer_1" viewBox="0 0 100 100" xmlns="http://www.w3.org/2000/svg"><defs><style>.cls-1{fill:#fecc09;}.cls-2{fill:#59c1db;}.cls-3{fill:#1a1818;}</style></defs><title/><path class="cls-1" d="M75,65.06c.14.14.29.28.43.4A30.33,30.33,0,1,1,80,44.78a29.94,29.94,0,0,0-7.17-.43l-3,.24-.25,2.95C69.54,48,68.72,58.8,75,65.06Z"/><path class="cls-2" d="M86.47,57.4a3.79,3.79,0,0,1-1.13,2.71,3.75,3.75,0,0,1-2.23,1.09,3.83,3.83,0,0,1-3.18-1.09,8.38,8.38,0,0,1-1.21-1.55,17.26,17.26,0,0,1-2.1-7.18,21.29,21.29,0,0,1,3.49.6c.37.09.74.2,1.11.32a11.08,11.08,0,0,1,3.65,2,6.29,6.29,0,0,1,.47.43A3.81,3.81,0,0,1,86.47,57.4Z"/><path class="cls-3" d="M92.65,53.26a10.74,10.74,0,0,0-2.36-3.52l0,0c0-.22,0-.45,0-.67a40.37,40.37,0,1,0-4.64,18.77,10.83,10.83,0,0,0,7-14.55ZM49.91,79.39A30.35,30.35,0,1,1,80,44.78a29.94,29.94,0,0,0-7.17-.43l-3,.24-.25,2.95c0,.46-.86,11.26,5.4,17.52.14.14.29.28.43.4A30.34,30.34,0,0,1,49.91,79.39ZM85.34,60.11a3.75,3.75,0,0,1-2.23,1.09,3.83,3.83,0,0,1-3.18-1.09,8.38,8.38,0,0,1-1.21-1.55,17.26,17.26,0,0,1-2.1-7.18,21.29,21.29,0,0,1,3.49.6c.37.09.74.2,1.11.32a11.08,11.08,0,0,1,3.65,2,6.29,6.29,0,0,1,.47.43,3.81,3.81,0,0,1,0,5.42Z"/><circle class="cls-3" cx="38.98" cy="38.37" r="5.5"/><circle class="cls-3" cx="61.02" cy="38.37" r="5.5"/><path class="cls-3" d="M34.92,66.11c-.67-3.77,1-7.66,3.87-10.43a16.22,16.22,0,0,1,22.25,0c2.84,2.77,4.54,6.66,3.86,10.44a31.24,31.24,0,0,0-8.19-3.88,25.36,25.36,0,0,0-6.8-1,24.68,24.68,0,0,0-6.81,1A30.49,30.49,0,0,0,34.92,66.11Z"/></svg>