<?xml version="1.0" ?><svg data-name="Layer 1" id="Layer_1" viewBox="0 0 100 100" xmlns="http://www.w3.org/2000/svg"><defs><style>.cls-1{fill:#fecc09;}.cls-2{fill:#1a1818;}</style></defs><title/><path class="cls-1" d="M80.35,50A30.35,30.35,0,1,1,50,19.65,30.39,30.39,0,0,1,80.35,50Z"/><path class="cls-2" d="M50,9.65A40.35,40.35,0,1,0,90.35,50,40.39,40.39,0,0,0,50,9.65Zm0,70.7A30.35,30.35,0,1,1,80.35,50,30.38,30.38,0,0,1,50,80.35Z"/><path class="cls-2" d="M53.54,37.19A25.91,25.91,0,0,0,59,38.71a25.33,25.33,0,0,0,4.13.31,25.07,25.07,0,0,0,9.54-1.88,7.58,7.58,0,0,1-2.71,6.34,10.46,10.46,0,0,1-13.63,0A7.61,7.61,0,0,1,53.54,37.19Z"/><path class="cls-2" d="M27.39,37.13a26.57,26.57,0,0,0,5.41,1.56A25.69,25.69,0,0,0,37,39a27.94,27.94,0,0,0,4.14-.33,27.49,27.49,0,0,0,5.42-1.56,7.58,7.58,0,0,1-2.72,6.35,10.46,10.46,0,0,1-13.68,0A7.6,7.6,0,0,1,27.39,37.13Z"/><path class="cls-2" d="M50,58a4,4,0,1,0,4,4,4,4,0,0,0-4-4Z"/></svg>