<?xml version="1.0" ?><svg data-name="Layer 1" id="Layer_1" viewBox="0 0 100 100" xmlns="http://www.w3.org/2000/svg"><defs><style>.cls-1{fill:#fecc09;}.cls-2{fill:#1a1818;}.cls-3{fill:#ef6538;}</style></defs><title/><path class="cls-1" d="M80.35,50A30.35,30.35,0,1,1,50,19.65,30.39,30.39,0,0,1,80.35,50Z"/><path class="cls-2" d="M50,9.65A40.35,40.35,0,1,0,90.35,50,40.39,40.39,0,0,0,50,9.65Zm0,70.7A30.35,30.35,0,1,1,80.35,50,30.39,30.39,0,0,1,50,80.35Z"/><path class="cls-2" d="M65.35,57.58a15.32,15.32,0,0,1-4.73,11.07,15.32,15.32,0,0,0-21.24,0,15.32,15.32,0,0,1-4.73-11.07Z"/><path class="cls-3" d="M58.6,49.3l-5.12-11a4.5,4.5,0,1,1,8.15-3.81L63,37.35,65.76,36a4.5,4.5,0,1,1,3.8,8.16Z"/><path class="cls-3" d="M41.41,49.3l-11-5.1A4.5,4.5,0,1,1,34.24,36l2.82,1.31,1.32-2.82a4.5,4.5,0,1,1,8.15,3.81Z"/><ellipse class="cls-3" cx="50" cy="68.64" rx="10.62" ry="4.28"/></svg>