<?xml version="1.0" ?><svg data-name="Layer 1" id="Layer_1" viewBox="0 0 100 100" xmlns="http://www.w3.org/2000/svg"><defs><style>.cls-1{fill:#fecc09;}.cls-2{fill:#1a1818;}.cls-3{fill:#59c1db;}</style></defs><title/><path class="cls-1" d="M72.8,47.55c0,.44-.79,10.25,4.54,16.59a30.33,30.33,0,0,1-53.68,0C29,57.8,28.24,48,28.2,47.55L28,44.6,25,44.36a27.39,27.39,0,0,0-4.33,0,30.34,30.34,0,0,1,59.64,0,27.39,27.39,0,0,0-4.33,0L73,44.6Z"/><path class="cls-2" d="M93.51,49.75a15.52,15.52,0,0,0-2.73-2.16,40.35,40.35,0,0,0-80.56,0,15.52,15.52,0,0,0-2.73,2.16,10.83,10.83,0,0,0,7,18.47,40.33,40.33,0,0,0,72,0,10.83,10.83,0,0,0,7-18.47ZM20.57,55a11.35,11.35,0,0,1-2.71,5.15,3.41,3.41,0,0,1-1,.71,4,4,0,0,1-4.4-.71,3.84,3.84,0,0,1,0-5.42,9.31,9.31,0,0,1,2.82-1.87,17.11,17.11,0,0,1,4.93-1.32l1-.12A23.45,23.45,0,0,1,20.57,55ZM76,44.36,73,44.6l-.24,2.95c0,.44-.79,10.25,4.54,16.59a30.33,30.33,0,0,1-53.68,0C29,57.8,28.24,48,28.2,47.55L28,44.6,25,44.36a27.39,27.39,0,0,0-4.33,0,30.34,30.34,0,0,1,59.64,0A27.39,27.39,0,0,0,76,44.36ZM88.56,60.12a4,4,0,0,1-4.4.71,3.41,3.41,0,0,1-1-.71,11.31,11.31,0,0,1-2.7-5.19,21.62,21.62,0,0,1-.61-3.53l1,.1a17.24,17.24,0,0,1,4.93,1.32,9.22,9.22,0,0,1,2.82,1.88A3.84,3.84,0,0,1,88.56,60.12Z"/><path class="cls-3" d="M88.56,60.12a4,4,0,0,1-4.4.71,3.41,3.41,0,0,1-1-.71,11.31,11.31,0,0,1-2.7-5.19,21.62,21.62,0,0,1-.61-3.53l1,.1a17.24,17.24,0,0,1,4.93,1.32,9.22,9.22,0,0,1,2.82,1.88A3.84,3.84,0,0,1,88.56,60.12Z"/><path class="cls-3" d="M21.17,51.39a23.45,23.45,0,0,1-.6,3.58,11.35,11.35,0,0,1-2.71,5.15,3.41,3.41,0,0,1-1,.71,4,4,0,0,1-4.4-.71,3.84,3.84,0,0,1,0-5.42,9.31,9.31,0,0,1,2.82-1.87,17.11,17.11,0,0,1,4.93-1.32Z"/><path class="cls-2" d="M65.92,55a15.35,15.35,0,0,1-30.7,0Z"/><path class="cls-2" d="M47,42.46a25.91,25.91,0,0,0-5.41-1.52,25.33,25.33,0,0,0-4.13-.31,26.7,26.7,0,0,0-4.13.34,27.34,27.34,0,0,0-5.41,1.54,7.6,7.6,0,0,1,2.71-6.34,10.44,10.44,0,0,1,13.63,0A7.58,7.58,0,0,1,47,42.46Z"/><path class="cls-2" d="M73.12,42.52A26.63,26.63,0,0,0,67.7,41a25.69,25.69,0,0,0-4.15-.33A24.94,24.94,0,0,0,54,42.52a7.62,7.62,0,0,1,2.72-6.35,10.46,10.46,0,0,1,13.68,0A7.64,7.64,0,0,1,73.12,42.52Z"/></svg>