<?xml version="1.0" ?><svg data-name="Layer 1" id="Layer_1" viewBox="0 0 100 100" xmlns="http://www.w3.org/2000/svg"><defs><style>.cls-1{fill:#fecc09;}.cls-2{fill:#1a1818;}.cls-3{fill:#ef6538;}</style></defs><title/><path class="cls-1" d="M50,19.65A30.35,30.35,0,1,0,80.35,50,30.38,30.38,0,0,0,50,19.65ZM39,33.83a5.5,5.5,0,1,1-5.5,5.5A5.51,5.51,0,0,1,39,33.83Zm22,11a5.5,5.5,0,1,1,5.5-5.5A5.51,5.51,0,0,1,61,44.83Z"/><path class="cls-2" d="M50,9.65A40.35,40.35,0,1,0,90.35,50,40.41,40.41,0,0,0,50,9.65Zm0,70.7A30.35,30.35,0,1,1,80.35,50,30.38,30.38,0,0,1,50,80.35Z"/><circle class="cls-2" cx="38.98" cy="39.33" r="5.5"/><circle class="cls-2" cx="61.02" cy="39.33" r="5.5"/><path class="cls-2" d="M43.43,56.46,43.49,66a14.94,14.94,0,0,1-4.61-3.07C36,60.17,34.35,56.27,35,52.51a30.8,30.8,0,0,0,8.18,3.89Z"/><path class="cls-2" d="M50,57.36a23.08,23.08,0,0,0,2.85-.18,15.9,15.9,0,0,1-2.85.25,17,17,0,0,1-2.49-.19C48.36,57.32,49.18,57.36,50,57.36Z"/><path class="cls-2" d="M61.12,63a15.5,15.5,0,0,1-4.55,3l-.06-9.53a2.45,2.45,0,0,1,.29-.08A30.53,30.53,0,0,0,65,52.51C65.67,56.29,64,60.18,61.12,63Z"/><path class="cls-3" d="M56.57,67a6.54,6.54,0,1,1-13.07.07V66l-.06-9.55a28,28,0,0,0,4,.77h.09a17,17,0,0,0,2.49.19,15.9,15.9,0,0,0,2.85-.25,26.23,26.23,0,0,0,3.66-.72L56.57,66Z"/><path class="cls-3" d="M43.43,56.05a16.45,16.45,0,0,0,4,1.18,28,28,0,0,1-4-.77Z"/><path class="cls-3" d="M56.51,56.08v.38a26.23,26.23,0,0,1-3.66.72A16.14,16.14,0,0,0,56.51,56.08Z"/></svg>