<?xml version="1.0" ?><svg data-name="Layer 1" id="Layer_1" viewBox="0 0 100 100" xmlns="http://www.w3.org/2000/svg"><defs><style>.cls-1{fill:#97c82c;}.cls-2{fill:#1a1818;}</style></defs><title/><path class="cls-1" d="M80.35,50A30.35,30.35,0,1,1,50,19.65,30.38,30.38,0,0,1,80.35,50Z"/><path class="cls-2" d="M50,9.65A40.35,40.35,0,1,0,90.35,50,40.4,40.4,0,0,0,50,9.65Zm0,70.7A30.35,30.35,0,1,1,80.35,50,30.37,30.37,0,0,1,50,80.35Z"/><path class="cls-2" d="M45.17,35.31a7.68,7.68,0,0,1-14.43,5.25Z"/><path class="cls-2" d="M68.63,40.56a7.67,7.67,0,1,1-14.42-5.25Z"/><rect class="cls-2" height="10" width="34.38" x="32.56" y="57.63"/></svg>