<?xml version="1.0" ?><svg data-name="Layer 1" id="Layer_1" viewBox="0 0 100 100" xmlns="http://www.w3.org/2000/svg"><defs><style>.cls-1{fill:#fecc09;}.cls-2{fill:#1a1818;}.cls-3{fill:#fff;}</style></defs><title/><path class="cls-1" d="M62.05,57.18v4a2,2,0,0,1-2,2H40a2,2,0,0,1-2-2v-4a2,2,0,0,1,2-2h20.1A2,2,0,0,1,62.05,57.18Z"/><path class="cls-1" d="M50,19.65A30.35,30.35,0,1,0,80.35,50,30.38,30.38,0,0,0,50,19.65ZM61,32.27a5.5,5.5,0,1,1-5.5,5.5A5.51,5.51,0,0,1,61,32.27Zm-22,0a5.5,5.5,0,1,1-5.5,5.5A5.51,5.51,0,0,1,39,32.27Zm31.07,29a10,10,0,0,1-10,10H40a10,10,0,0,1-10-10v-4a10,10,0,0,1,10-10h20.1a10,10,0,0,1,10,10Z"/><path class="cls-2" d="M50,9.65A40.35,40.35,0,1,0,90.35,50,40.39,40.39,0,0,0,50,9.65Zm0,70.7A30.35,30.35,0,1,1,80.35,50,30.39,30.39,0,0,1,50,80.35Z"/><path class="cls-3" d="M62.05,57.18v4a2,2,0,0,1-2,2H40a2,2,0,0,1-2-2v-4a2,2,0,0,1,2-2h20.1A2,2,0,0,1,62.05,57.18Z"/><path class="cls-2" d="M60.05,47.18H40a10,10,0,0,0-10,10v4a10,10,0,0,0,10,10h20.1a10,10,0,0,0,10-10v-4A10,10,0,0,0,60.05,47.18Zm2,14a2,2,0,0,1-2,2H40a2,2,0,0,1-2-2v-4a2,2,0,0,1,2-2h20.1a2,2,0,0,1,2,2Z"/><circle class="cls-2" cx="38.98" cy="37.77" r="5.5"/><circle class="cls-2" cx="61.02" cy="37.77" r="5.5"/></svg>