<?xml version="1.0" ?><svg data-name="Layer 1" id="Layer_1" viewBox="0 0 100 100" xmlns="http://www.w3.org/2000/svg"><defs><style>.cls-1{fill:#fecc09;}.cls-2{fill:#1a1818;}</style></defs><title/><circle class="cls-1" cx="50" cy="50" r="30.35" transform="translate(-10.15 87.17) rotate(-76.72)"/><path class="cls-2" d="M50,9.65A40.35,40.35,0,1,0,90.35,50,40.39,40.39,0,0,0,50,9.65Zm0,70.7A30.35,30.35,0,1,1,80.35,50,30.39,30.39,0,0,1,50,80.35Z"/><rect class="cls-2" height="10" width="30.55" x="34.73" y="55.79"/><path class="cls-2" d="M46.82,36.37a7.68,7.68,0,1,1-15.35,0Z"/><path class="cls-2" d="M68.53,36.37a7.68,7.68,0,1,1-15.35,0Z"/></svg>