<?xml version="1.0" ?><svg data-name="Layer 1" id="Layer_1" viewBox="0 0 100 100" xmlns="http://www.w3.org/2000/svg"><defs><style>.cls-1{fill:#fecc09;}.cls-2{fill:#1a1818;}.cls-3{fill:#59c1db;}</style></defs><title/><path class="cls-1" d="M72.86,70.21V42.53A26.12,26.12,0,0,0,67.44,41a25.57,25.57,0,0,0-4.14-.33,27,27,0,0,0-2.8.16V78.56a30.36,30.36,0,0,1-21-.15V40.73l-.64,0-.61,0c-.38,0-.76,0-1.14,0A27.87,27.87,0,0,0,33,41a27,27,0,0,0-5.41,1.54s0,15.77,0,27.73a30.36,30.36,0,1,1,45.24,0Z"/><path class="cls-2" d="M90.59,50A40.36,40.36,0,0,1,72.86,83.4V70.21a30.34,30.34,0,1,0-45.24,0V83.41A38.8,38.8,0,0,1,24.42,81,40.35,40.35,0,1,1,90.59,50Z"/><path class="cls-2" d="M60.5,78.56V89a40.6,40.6,0,0,1-21-.11V78.41a30.36,30.36,0,0,0,21,.15Z"/><path class="cls-2" d="M46.7,42.47a26,26,0,0,0-5.41-1.53c-.61-.09-1.18-.16-1.74-.21l-.64,0-.61,0c-.38,0-.76,0-1.14,0A27.87,27.87,0,0,0,33,41a27,27,0,0,0-5.41,1.54h0a7.6,7.6,0,0,1,2.71-6.34,10.44,10.44,0,0,1,13.63,0A7.59,7.59,0,0,1,46.7,42.47Z"/><path class="cls-2" d="M72.86,42.53A26.12,26.12,0,0,0,67.44,41a25.57,25.57,0,0,0-4.14-.33,27,27,0,0,0-2.8.16L59.15,41a26.17,26.17,0,0,0-5.42,1.56,7.64,7.64,0,0,1,2.72-6.36,10.46,10.46,0,0,1,13.68,0A7.66,7.66,0,0,1,72.86,42.53Z"/><path class="cls-2" d="M50.24,69.75a5.5,5.5,0,0,1-5.5-5.5V56.49a5.5,5.5,0,0,1,11,0v7.76A5.5,5.5,0,0,1,50.24,69.75Z"/><path class="cls-3" d="M39.55,40.73V88.92c-.63-.17-1.25-.36-1.87-.57L36.76,88l-.92-.34-1.11-.44-.89-.38c-.75-.34-1.5-.7-2.23-1.09-.35-.17-.69-.36-1-.55s-.64-.36-.95-.54c-.68-.41-1.36-.84-2-1.29V70.24c0-12,0-27.73,0-27.73A27,27,0,0,1,33,41a27.87,27.87,0,0,1,4.12-.34c.38,0,.76,0,1.14,0l.61,0Z"/><path class="cls-3" d="M72.86,42.53V83.4c-.47.32-.94.63-1.43.93s-1,.58-1.44.85-1,.55-1.5.8-1,.51-1.53.74-1,.47-1.59.69-1,.41-1.58.6-1,.36-1.56.52l-.17,0c-.49.15-1,.3-1.48.43l-.08,0V40.79a27,27,0,0,1,2.8-.16,25.57,25.57,0,0,1,4.14.33A26.12,26.12,0,0,1,72.86,42.53Z"/></svg>