<?xml version="1.0" ?><svg data-name="Layer 1" id="Layer_1" viewBox="0 0 100 100" xmlns="http://www.w3.org/2000/svg"><defs><style>.cls-1{fill:#fecc09;}.cls-2{fill:#1a1818;}.cls-3{fill:#ef6538;}</style></defs><title/><path class="cls-1" d="M62.07,72.25l3.42,3.41a30.07,30.07,0,0,1-15.25,4.13A30.37,30.37,0,1,1,80.42,52.63a11.2,11.2,0,0,0-4.84,1.31A11.51,11.51,0,0,0,62.07,72.25Z"/><path class="cls-2" d="M89.9,56.89a40.35,40.35,0,1,0-39.66,32.9,40.12,40.12,0,0,0,22.51-6.88l2.83,2.82,4.94-4.94,8.56-8.54a11.48,11.48,0,0,0,.82-15.36ZM50.24,79.79A30.37,30.37,0,1,1,80.42,52.63a11.2,11.2,0,0,0-4.84,1.31A11.51,11.51,0,0,0,62.07,72.25l3.42,3.41A30.07,30.07,0,0,1,50.24,79.79Zm33.9-12.5-8.56,8.55L74.7,75l-3.56-3.55L67,67.29a4.5,4.5,0,1,1,6.36-6.36l2.2,2.19,2.2-2.19a4.23,4.23,0,0,1,.79-.62,4.4,4.4,0,0,1,2.39-.7,4.49,4.49,0,0,1,2.83,1l.35.32A4.49,4.49,0,0,1,84.14,67.29Z"/><path class="cls-2" d="M50.24,57.78a4,4,0,1,0,4,4,4,4,0,0,0-4-4Z"/><path class="cls-2" d="M47.06,41a26.77,26.77,0,0,0-5.62-.07,26.05,26.05,0,0,0-4.07.77,28,28,0,0,0-3.9,1.4A27.18,27.18,0,0,0,28.65,46a7.61,7.61,0,0,1,1-6.82,10.44,10.44,0,0,1,13.16-3.55A7.57,7.57,0,0,1,47.06,41Z"/><path class="cls-2" d="M71.83,46A27.26,27.26,0,0,0,67,43.1a26.9,26.9,0,0,0-3.92-1.39A26.6,26.6,0,0,0,59,41a28,28,0,0,0-5.64.1,7.62,7.62,0,0,1,4.27-5.43,10.47,10.47,0,0,1,13.21,3.55A7.64,7.64,0,0,1,71.83,46Z"/><path class="cls-3" d="M84.14,67.29l-8.56,8.55L74.7,75l-3.56-3.55L67,67.29a4.5,4.5,0,1,1,6.36-6.36l2.2,2.19,2.2-2.19a4.23,4.23,0,0,1,.79-.62,4.4,4.4,0,0,1,2.39-.7,4.49,4.49,0,0,1,2.83,1l.35.32A4.49,4.49,0,0,1,84.14,67.29Z"/></svg>