<?xml version="1.0" ?><svg data-name="Layer 1" id="Layer_1" viewBox="0 0 100 100" xmlns="http://www.w3.org/2000/svg"><defs><style>.cls-1{fill:#fecc09;}.cls-2{fill:#1a1818;}</style></defs><title/><path class="cls-1" d="M79.67,50A30.35,30.35,0,1,1,49.32,19.65,30.38,30.38,0,0,1,79.67,50Z"/><path class="cls-2" d="M49.32,9.65A40.35,40.35,0,1,0,89.67,50,40.39,40.39,0,0,0,49.32,9.65Zm0,70.7A30.35,30.35,0,1,1,79.67,50,30.38,30.38,0,0,1,49.32,80.35Z"/><path class="cls-2" d="M43.89,39.85a5.31,5.31,0,0,1,.6,2.48,5.49,5.49,0,0,1-11,.3l-3.08.83-1.81-6.77,16.55-4.43L47,39Z"/><path class="cls-2" d="M70,36.69l-1.82,6.77-3.08-.83a5.49,5.49,0,0,1-11-.3,5.43,5.43,0,0,1,.59-2.48L51.66,39l1.81-6.76Z"/><path class="cls-2" d="M34.65,68.35a15.35,15.35,0,1,1,30.7,0Z"/></svg>