<?xml version="1.0" ?><svg data-name="Layer 1" id="Layer_1" viewBox="0 0 100 100" xmlns="http://www.w3.org/2000/svg"><defs><style>.cls-1{fill:#fecc09;}.cls-2{fill:#1a1818;}</style></defs><title/><circle class="cls-1" cx="50" cy="50" r="30.35" transform="translate(-15.33 22.94) rotate(-22.5)"/><path class="cls-2" d="M50,9.65A40.35,40.35,0,1,0,90.35,50,40.39,40.39,0,0,0,50,9.65Zm0,70.7A30.35,30.35,0,1,1,80.35,50,30.39,30.39,0,0,1,50,80.35Z"/><path class="cls-2" d="M65.35,54.62a15.35,15.35,0,1,1-30.7,0Z"/><polygon class="cls-2" points="37.48 49.98 31.82 44.32 36.33 39.83 31.82 35.33 37.48 29.67 47.65 39.83 37.48 49.98"/><polygon class="cls-2" points="62.52 49.98 52.37 39.83 62.52 29.67 68.18 35.32 63.68 39.83 68.18 44.33 62.52 49.98"/></svg>